<svg xmlns="http://www.w3.org/2000/svg" version="1.1" xmlns:xlink="http://www.w3.org/1999/xlink"
    xmlns:svgjs="http://svgjs.dev/svgjs" width="1440" height="560" preserveAspectRatio="none" viewBox="0 0 1440 560">
    <g mask="url(&quot;#SvgjsMask1008&quot;)" fill="none">
        <rect width="1440" height="560" x="0" y="0" fill="url(&quot;#SvgjsLinearGradient1009&quot;)"></rect>
        <path
            d="M534.898,572.769C568.964,570.45,601.03,555.205,618.009,525.581C634.899,496.113,631.003,461.205,616.426,430.527C598.928,393.7,575.65,351.978,534.898,350.665C492.904,349.312,464.294,388.322,443.736,424.965C423.752,460.586,408.129,503.644,429.57,538.408C450.349,572.097,495.407,575.457,534.898,572.769"
            fill="rgba(251,208,251, 0.4)" class="triangle-float3"></path>
        <path
            d="M295.472,563.886C333.779,562.926,375.383,556.422,394.786,523.379C414.366,490.034,400.829,449.848,382.397,415.854C362.775,379.664,336.59,342.22,295.472,340.215C251.756,338.083,214.325,368.651,192.505,406.592C170.756,444.41,163.247,492.084,187.141,528.585C209.436,562.643,254.779,564.906,295.472,563.886"
            fill="rgba(28, 83, 142, 0.4)" class="triangle-float2"></path>
        <path
            d="M1368.582,388.816C1413.974,390.985,1462.013,378.985,1486.272,340.558C1511.945,299.891,1511.157,245.666,1484.015,205.964C1459.539,170.163,1411.867,165.733,1368.582,168.409C1330.822,170.743,1295.326,186.648,1275.476,218.854C1254.573,252.769,1249.741,295.231,1268.881,330.171C1288.735,366.414,1327.304,386.844,1368.582,388.816"
            fill="rgba(251,208,251, 0.4)" class="triangle-float1"></path>
        <path
            d="M120.734,331.032C135.663,331.944,151.123,325.975,158.497,312.962C165.789,300.093,162.48,284.104,154.314,271.772C146.99,260.712,133.995,256.276,120.734,255.931C106.688,255.566,91.015,257.776,83.986,269.943C76.955,282.113,82.953,296.745,90.198,308.789C97.155,320.355,107.262,330.209,120.734,331.032"
            fill="rgba(28, 83, 142, 0.4)" class="triangle-float2"></path>
        <path
            d="M1155.125,294.415C1186.061,293.393,1210.675,270.514,1224.862,243.004C1237.826,217.866,1235.44,188.996,1222.445,163.874C1208.104,136.15,1186.317,107.052,1155.125,108.187C1124.921,109.286,1110.548,142.109,1095.785,168.482C1081.543,193.926,1064.497,221.513,1076.926,247.89C1090.783,277.298,1122.634,295.488,1155.125,294.415"
            fill="rgba(28, 83, 142, 0.4)" class="triangle-float2"></path>
        <path
            d="M66.359,393.742C88.797,394.994,110.751,382.216,120.705,362.068C129.812,343.634,121.507,322.529,109.936,305.533C100.002,290.942,84.01,282.383,66.359,282.247C48.446,282.109,30.847,289.507,21.601,304.851C12.07,320.667,13.288,340.045,21.593,356.538C30.946,375.112,45.595,392.583,66.359,393.742"
            fill="rgba(251,208,251, 0.4)" class="triangle-float3"></path>
        <path
            d="M928.5,431.047C947.474,430.069,966.655,424.867,976.806,408.807C987.632,391.679,987.653,370.135,978.391,352.113C968.218,332.319,950.733,315.799,928.5,314.816C904.715,313.764,882.292,326.75,870.333,347.336C858.32,368.016,857.073,394.637,870.72,414.277C882.985,431.929,907.034,432.154,928.5,431.047"
            fill="rgba(251,208,251, 0.4)" class="triangle-float1"></path>
    </g>

    <defs>
        <mask id="SvgjsMask1008">
            <rect width="1440" height="560" fill="#ffffff"></rect>
        </mask>
        <linearGradient x1="84.72%" y1="139.29%" x2="15.28%" y2="-39.29%" gradientUnits="userSpaceOnUse"
            id="SvgjsLinearGradient1009">
            <stop stop-color="rgba(255, 255, 255, 1)" offset="1"></stop>
            <stop stop-color="rgba(255, 255, 255, 0.59)" offset="1"></stop>
        </linearGradient>
        <style>
            @keyframes float1 {
                0% {
                    transform: translate(0, 0)
                }

                50% {
                    transform: translate(-10px, 0)
                }

                100% {
                    transform: translate(0, 0)
                }
            }

            .triangle-float1 {
                animation: float1 5s infinite;
            }

            @keyframes float2 {
                0% {
                    transform: translate(0, 0)
                }

                50% {
                    transform: translate(-5px, -5px)
                }

                100% {
                    transform: translate(0, 0)
                }
            }

            .triangle-float2 {
                animation: float2 4s infinite;
            }

            @keyframes float3 {
                0% {
                    transform: translate(0, 0)
                }

                50% {
                    transform: translate(0, -10px)
                }

                100% {
                    transform: translate(0, 0)
                }
            }

            .triangle-float3 {
                animation: float3 6s infinite;
            }
        </style>
    </defs>
</svg>